<svg width="120" height="52" viewBox="0 0 120 52" fill="none" xmlns="http://www.w3.org/2000/svg">
<path d="M10.95 31.2999C9.03002 31.2999 7.26002 30.98 5.64002 30.34C4.04002 29.68 2.79002 28.7799 1.89002 27.6399C1.73002 27.4399 1.65002 27.23 1.65002 27.01C1.65002 26.73 1.80002 26.46 2.10002 26.2C2.26002 26.08 2.43002 26.02 2.61002 26.02C2.97002 26.02 3.29002 26.19 3.57002 26.53C4.39002 27.43 5.42002 28.13 6.66002 28.63C7.92002 29.11 9.35002 29.35 10.95 29.35C12.71 29.35 14.07 29.0299 15.03 28.3899C15.99 27.7299 16.47 26.8 16.47 25.6C16.47 24.56 16 23.72 15.06 23.08C14.14 22.44 12.57 21.87 10.35 21.37C7.45003 20.73 5.36002 19.93 4.08002 18.97C2.82002 17.99 2.19002 16.7 2.19002 15.1C2.19002 13.44 2.89002 12.13 4.29002 11.17C5.71002 10.19 7.62003 9.69995 10.02 9.69995C11.84 9.69995 13.48 10.02 14.94 10.66C16.42 11.3 17.47 12.16 18.09 13.24C18.21 13.44 18.27 13.63 18.27 13.81C18.27 14.13 18.1 14.41 17.76 14.65C17.62 14.73 17.46 14.77 17.28 14.77C16.84 14.77 16.5 14.6 16.26 14.26C15.68 13.42 14.86 12.78 13.8 12.34C12.74 11.88 11.48 11.65 10.02 11.65C6.32003 11.65 4.47002 12.8 4.47002 15.1C4.47002 15.8 4.66002 16.39 5.04002 16.87C5.42002 17.33 6.03002 17.75 6.87002 18.13C7.73002 18.49 8.92002 18.85 10.44 19.21C13.4 19.91 15.53 20.76 16.83 21.76C18.13 22.74 18.78 24.02 18.78 25.6C18.78 27.36 18.07 28.75 16.65 29.77C15.25 30.79 13.35 31.2999 10.95 31.2999ZM23.5699 31.2999C23.2299 31.2999 22.9599 31.2 22.7599 31C22.5799 30.78 22.4899 30.48 22.4899 30.1V17.2C22.4899 16.82 22.5799 16.53 22.7599 16.33C22.9599 16.11 23.2299 16 23.5699 16C23.9299 16 24.1999 16.11 24.3799 16.33C24.5799 16.55 24.6799 16.84 24.6799 17.2V18.91C25.2199 18.01 25.9099 17.3 26.7499 16.78C27.6099 16.26 28.5099 16 29.4499 16C30.3899 16 31.2199 16.26 31.9399 16.78C32.6599 17.28 33.1899 17.99 33.5299 18.91C34.2299 17.97 34.9999 17.25 35.8399 16.75C36.6999 16.25 37.5899 16 38.5099 16C40.0899 16 41.2799 16.49 42.0799 17.47C42.8799 18.43 43.2799 19.86 43.2799 21.76V30.1C43.2799 30.48 43.1799 30.78 42.9799 31C42.7799 31.2 42.5099 31.2999 42.1699 31.2999C41.4499 31.2999 41.0899 30.9 41.0899 30.1V21.7C41.0899 20.42 40.8699 19.47 40.4299 18.85C40.0099 18.21 39.2799 17.89 38.2399 17.89C37.3599 17.89 36.5699 18.16 35.8699 18.7C35.1699 19.22 34.6099 19.98 34.1899 20.98V30.1C34.1899 30.48 34.0899 30.78 33.8899 31C33.6899 31.2 33.4199 31.2999 33.0799 31.2999C32.7399 31.2999 32.4699 31.2 32.2699 31C32.0899 30.78 31.9999 30.48 31.9999 30.1V22.15C31.9999 20.77 31.7499 19.72 31.2499 19C30.7699 18.26 30.0799 17.89 29.1799 17.89C28.3199 17.89 27.5499 18.13 26.8699 18.61C26.1899 19.07 25.6499 19.71 25.2499 20.53C24.8699 21.35 24.6799 22.28 24.6799 23.32V30.1C24.6799 30.46 24.5799 30.75 24.3799 30.97C24.1999 31.19 23.9299 31.2999 23.5699 31.2999ZM52.7658 31.2999C50.8058 31.2999 49.2658 30.87 48.1458 30.01C47.0458 29.15 46.4958 27.96 46.4958 26.44C46.4958 24.94 47.0758 23.75 48.2358 22.87C49.4158 21.99 51.0158 21.55 53.0358 21.55C54.2158 21.55 55.2558 21.71 56.1558 22.03C57.0758 22.35 57.7858 22.78 58.2858 23.32V21.4C58.2858 20.26 57.9058 19.39 57.1458 18.79C56.4058 18.19 55.3158 17.89 53.8758 17.89C52.0158 17.89 50.4058 18.33 49.0458 19.21C48.7058 19.41 48.4258 19.51 48.2058 19.51C48.0058 19.51 47.8058 19.43 47.6058 19.27C47.3858 19.09 47.2758 18.86 47.2758 18.58C47.2758 18.28 47.4058 18.03 47.6658 17.83C48.3858 17.27 49.2958 16.83 50.3958 16.51C51.5158 16.17 52.6558 16 53.8158 16C55.9358 16 57.5758 16.48 58.7358 17.44C59.9158 18.4 60.5058 19.75 60.5058 21.49V30.13C60.5058 30.91 60.1458 31.2999 59.4258 31.2999C59.1058 31.2999 58.8458 31.2 58.6458 31C58.4458 30.78 58.3458 30.5 58.3458 30.16V29.08C57.1058 30.56 55.2458 31.2999 52.7658 31.2999ZM53.0358 29.47C54.5958 29.47 55.8658 29.18 56.8458 28.6C57.8258 28 58.3158 27.23 58.3158 26.29C58.3158 25.35 57.8558 24.63 56.9358 24.13C56.0358 23.61 54.7558 23.35 53.0958 23.35C51.6958 23.35 50.6158 23.62 49.8558 24.16C49.0958 24.68 48.7158 25.44 48.7158 26.44C48.7158 27.42 49.0858 28.17 49.8258 28.69C50.5658 29.21 51.6358 29.47 53.0358 29.47ZM65.6709 31.2999C65.3309 31.2999 65.0609 31.2 64.8609 31C64.6809 30.78 64.5909 30.48 64.5909 30.1V17.2C64.5909 16.82 64.6809 16.53 64.8609 16.33C65.0409 16.11 65.3109 16 65.6709 16C66.0109 16 66.2709 16.11 66.4509 16.33C66.6509 16.53 66.7509 16.82 66.7509 17.2V19C68.1109 17.2 69.9909 16.3 72.3909 16.3H73.1409C73.5209 16.3 73.8209 16.39 74.0409 16.57C74.2609 16.73 74.3709 16.96 74.3709 17.26C74.3709 17.56 74.2609 17.79 74.0409 17.95C73.8209 18.11 73.5209 18.19 73.1409 18.19H72.3009C70.6009 18.19 69.2509 18.68 68.2509 19.66C67.2709 20.62 66.7809 21.93 66.7809 23.59V30.1C66.7809 30.46 66.6809 30.75 66.4809 30.97C66.3009 31.19 66.0309 31.2999 65.6709 31.2999ZM86.7684 28.03C86.9884 28.21 87.0984 28.42 87.0984 28.66C87.0984 28.86 87.0084 29.1 86.8284 29.38C86.4084 29.96 85.8284 30.43 85.0884 30.79C84.3484 31.13 83.5884 31.2999 82.8084 31.2999C81.4884 31.2999 80.4484 30.91 79.6884 30.13C78.9284 29.35 78.5484 28.28 78.5484 26.92V18.13H76.9284C76.1284 18.13 75.7284 17.82 75.7284 17.2C75.7284 16.92 75.8284 16.7 76.0284 16.54C76.2484 16.38 76.5484 16.3 76.9284 16.3H78.5484V11.17C78.5484 10.79 78.6384 10.5 78.8184 10.3C79.0184 10.08 79.2984 9.96995 79.6584 9.96995C79.9984 9.96995 80.2584 10.08 80.4384 10.3C80.6384 10.5 80.7384 10.79 80.7384 11.17V16.3H84.8184C85.1784 16.3 85.4584 16.38 85.6584 16.54C85.8784 16.68 85.9884 16.9 85.9884 17.2C85.9884 17.82 85.5984 18.13 84.8184 18.13H80.7384V27.1C80.7384 28.64 81.4584 29.41 82.8984 29.41C83.3584 29.41 83.7784 29.3199 84.1584 29.1399C84.5384 28.9599 84.9184 28.67 85.2984 28.27C85.5984 27.95 85.8884 27.79 86.1684 27.79C86.3484 27.79 86.5484 27.87 86.7684 28.03Z" fill="white"/>
<path d="M105.27 44.3C104.93 44.3 104.66 44.2 104.46 44C104.28 43.78 104.19 43.48 104.19 43.1V22.43C104.19 22.05 104.28 21.76 104.46 21.56C104.66 21.34 104.93 21.23 105.27 21.23C105.61 21.23 105.88 21.34 106.08 21.56C106.28 21.76 106.38 22.05 106.38 22.43V35.87L116.34 29.15C116.54 29.01 116.75 28.94 116.97 28.94C117.31 28.94 117.56 29.08 117.72 29.36C117.82 29.5 117.87 29.69 117.87 29.93C117.87 30.29 117.71 30.57 117.39 30.77L112.02 34.34C113.76 35.52 115.11 36.82 116.07 38.24C117.03 39.64 117.69 41.27 118.05 43.13C118.11 43.45 118.05 43.73 117.87 43.97C117.69 44.19 117.43 44.3 117.09 44.3C116.43 44.3 116.04 44.02 115.92 43.46C115.5 41.54 114.88 40.02 114.06 38.9C113.26 37.76 111.99 36.63 110.25 35.51L106.38 38.12V43.1C106.38 43.46 106.28 43.75 106.08 43.97C105.9 44.19 105.63 44.3 105.27 44.3Z" fill="white"/>
<path d="M93.0488 27V36" stroke="white" stroke-width="1.8" stroke-linecap="round"/>
<path d="M93.0489 44C90.2155 44.1667 84.5 42.5 84 35C84 33 84.0489 31.4 86.0489 29" stroke="white" stroke-width="1.8" stroke-linecap="round"/>
<path d="M93.0488 44C95.7155 44.1667 101.249 42.8 102.049 36C102.215 34.8333 102.049 31.8 100.049 29" stroke="white" stroke-width="1.8" stroke-linecap="round"/>
</svg>
